<svg width="442" height="148" viewBox="0 0 442 148" fill="none" xmlns="http://www.w3.org/2000/svg">
<path d="M94.1566 39.8189C83.7566 24.9338 63.2166 20.5218 48.3652 29.9841L22.2825 46.6078C18.759 48.8245 15.7367 51.752 13.409 55.2032C11.0812 58.6543 9.49915 62.5532 8.7639 66.6506C7.5197 73.5524 8.61328 80.6721 11.8715 86.8824C9.63888 90.2691 8.11613 94.0734 7.3953 98.0653C6.65225 102.245 6.75134 106.531 7.68674 110.673C8.62214 114.814 10.375 118.726 12.8426 122.181C23.2448 137.067 43.7849 141.478 58.634 132.016L84.7167 115.392C88.2404 113.176 91.2629 110.248 93.5907 106.797C95.9184 103.346 97.5004 99.4468 98.2353 95.3493C99.4793 88.4475 98.3866 81.328 95.13 75.117C97.362 71.7303 98.8841 67.9262 99.6043 63.9346C100.348 59.7547 100.249 55.4684 99.3136 51.3272C98.3782 47.186 96.625 43.2734 94.157 39.8189" fill="#FF3E00"/>
<path d="M45.8171 123.581C41.7125 124.649 37.3792 124.431 33.4025 122.957C29.4258 121.483 25.9973 118.824 23.58 115.339C22.0958 113.261 21.0414 110.909 20.4788 108.418C19.9161 105.928 19.8565 103.35 20.3034 100.836C20.4547 100.011 20.663 99.1972 20.9267 98.4007L21.4179 96.9029L22.7542 97.8844C25.8403 100.152 29.2909 101.876 32.9572 102.982L33.9266 103.276L33.8373 104.244C33.7188 105.62 34.0915 106.994 34.8893 108.122C35.6168 109.172 36.6489 109.973 37.8462 110.417C39.0435 110.861 40.3483 110.928 41.5845 110.607C42.1514 110.455 42.6917 110.218 43.1866 109.903L69.27 93.281C69.9082 92.8791 70.4557 92.3487 70.8777 91.7235C71.2996 91.0984 71.5867 90.3922 71.7206 89.65C71.8544 88.8923 71.836 88.1156 71.6665 87.3651C71.497 86.6146 71.1797 85.9054 70.7331 85.2788C70.0052 84.2289 68.9727 83.4275 67.775 82.9829C66.5773 82.5383 65.272 82.4718 64.0353 82.7924C63.4692 82.9439 62.9296 83.1812 62.4353 83.496L52.4821 89.8409C50.8454 90.8815 49.0593 91.6659 47.1856 92.1668C43.081 93.234 38.7478 93.0158 34.7712 91.5418C30.7945 90.0677 27.3661 87.4088 24.9488 83.9241C23.4645 81.8467 22.4101 79.4938 21.8475 77.0034C21.2848 74.5131 21.2252 71.9354 21.6722 69.4217C22.1142 66.9578 23.0657 64.6133 24.4656 62.5382C25.8655 60.4631 27.6831 58.7029 29.8022 57.3704L55.8833 40.7472C57.5207 39.7049 59.3081 38.9195 61.1833 38.4185C65.2878 37.3513 69.621 37.5695 73.5976 39.0435C77.5742 40.5175 81.0027 43.1764 83.42 46.6611C84.9042 48.7385 85.9586 51.0914 86.5212 53.5818C87.0839 56.0722 87.1435 58.6499 86.6966 61.1636C86.5446 61.9888 86.3364 62.8026 86.0733 63.5993L85.5821 65.0971L84.2465 64.1171C81.1606 61.8482 77.7097 60.1234 74.0428 59.0171L73.0734 58.7229L73.1627 57.7554C73.2801 56.3791 72.9075 55.0056 72.1107 53.8774C71.3832 52.8277 70.3511 52.0266 69.1538 51.5822C67.9565 51.1378 66.6517 51.0715 65.4155 51.3924C64.8486 51.5439 64.3083 51.7814 63.8134 52.0965L37.73 68.719C37.0919 69.1205 36.5445 69.6508 36.1229 70.2758C35.7013 70.9008 35.4146 71.6069 35.2813 72.349C35.1466 73.1066 35.1644 73.8835 35.3337 74.6341C35.5029 75.3848 35.8202 76.0941 36.2669 76.7207C36.9948 77.7706 38.0273 78.5719 39.225 79.0165C40.4227 79.4612 41.728 79.5277 42.9647 79.2071C43.5314 79.0553 44.0716 78.8178 44.5667 78.503L54.5186 72.1605C56.1546 71.1185 57.9406 70.3334 59.8145 69.8327C63.9191 68.7655 68.2523 68.9836 72.2289 70.4577C76.2056 71.9317 79.634 74.5907 82.0513 78.0754C83.5356 80.1528 84.59 82.5057 85.1526 84.996C85.7153 87.4864 85.7749 90.0641 85.3279 92.5778C84.8856 95.0418 83.934 97.3864 82.5341 99.4619C81.1343 101.537 79.3168 103.298 77.1979 104.631L51.1167 121.253C49.4793 122.295 47.6919 123.08 45.8167 123.581" fill="#404040"/>
<path d="M158.2 55.064L152.696 63.256C151.16 62.1467 148.856 61.1653 145.784 60.312C142.797 59.3733 140.152 58.904 137.848 58.904C132.045 58.904 127.821 60.9947 125.176 65.176C122.616 69.3573 121.336 74.4773 121.336 80.536C121.336 86.5093 122.744 91.8427 125.56 96.536C128.376 101.229 132.045 103.576 136.568 103.576C139.981 103.576 143.48 102.723 147.064 101.016C150.733 99.224 153.421 97.176 155.128 94.872L160.376 101.4C158.157 104.131 154.957 106.52 150.776 108.568C146.595 110.616 141.688 111.64 136.056 111.64C127.779 111.64 121.549 108.952 117.368 103.576C113.187 98.2 111.096 91.0747 111.096 82.2C111.096 73.3253 113.741 65.7307 119.032 59.416C124.323 53.1013 131.277 49.944 139.896 49.944C145.528 49.944 151.629 51.6507 158.2 55.064ZM169.189 50.968L178.405 49.944L179.557 62.104L180.325 61.976C184.848 53.4427 190.778 49.176 198.117 49.176C201.53 49.176 205.029 50.2427 208.613 52.376L204.133 62.232C201.061 60.2693 198.074 59.288 195.173 59.288C192.357 59.288 189.84 60.568 187.621 63.128C185.402 65.6027 183.653 69.016 182.373 73.368C181.178 77.6347 180.581 82.6693 180.581 88.472C180.581 94.2747 180.794 101.784 181.221 111L169.317 111.512C169.488 97.688 169.573 86.2533 169.573 77.208L169.189 50.968ZM261.361 84.888L223.601 85.144C223.601 90.6053 225.137 95 228.209 98.328C231.281 101.571 234.737 103.192 238.577 103.192C242.417 103.192 245.702 102.595 248.433 101.4C251.249 100.12 253.254 98.8827 254.449 97.688L256.113 95.768L261.361 102.68C256.412 108.653 248.732 111.64 238.321 111.64C229.958 111.64 223.601 109.123 219.249 104.088C214.897 99.0533 212.721 92.1413 212.721 83.352C212.721 74.4773 215.452 66.712 220.913 60.056C226.46 53.3147 233.542 49.944 242.161 49.944C249.073 49.944 254.108 52.3333 257.265 57.112C260.508 61.8053 262.129 67.9493 262.129 75.544C262.129 78.7013 261.873 81.816 261.361 84.888ZM252.145 77.592C252.145 71.448 251.206 66.7973 249.329 63.64C247.537 60.4827 244.294 58.904 239.601 58.904C234.993 58.904 231.153 60.952 228.081 65.048C225.094 69.0587 223.558 73.3253 223.473 77.848L252.145 77.592ZM318.861 84.888L281.101 85.144C281.101 90.6053 282.637 95 285.709 98.328C288.781 101.571 292.237 103.192 296.077 103.192C299.917 103.192 303.202 102.595 305.933 101.4C308.749 100.12 310.754 98.8827 311.949 97.688L313.613 95.768L318.861 102.68C313.912 108.653 306.232 111.64 295.821 111.64C287.458 111.64 281.101 109.123 276.749 104.088C272.397 99.0533 270.221 92.1413 270.221 83.352C270.221 74.4773 272.952 66.712 278.413 60.056C283.96 53.3147 291.042 49.944 299.661 49.944C306.573 49.944 311.608 52.3333 314.765 57.112C318.008 61.8053 319.629 67.9493 319.629 75.544C319.629 78.7013 319.373 81.816 318.861 84.888ZM309.645 77.592C309.645 71.448 308.706 66.7973 306.829 63.64C305.037 60.4827 301.794 58.904 297.101 58.904C292.493 58.904 288.653 60.952 285.581 65.048C282.594 69.0587 281.058 73.3253 280.973 77.848L309.645 77.592ZM341.289 65.944C350.078 54.936 358.057 49.432 365.225 49.432C375.294 49.432 380.329 56.5147 380.329 70.68V83.224C380.329 97.304 380.457 106.52 380.713 110.872L369.577 111.64C369.918 95.256 370.089 83.9493 370.089 77.72C370.089 71.4053 369.577 66.8827 368.553 64.152C367.529 61.4213 365.438 60.056 362.281 60.056C359.209 60.056 355.582 62.104 351.401 66.2C347.22 70.296 344.532 74.648 343.337 79.256C342.142 83.864 341.545 90.1787 341.545 98.2L342.185 110.872L330.793 111.64C330.622 90.7333 330.537 77.848 330.537 72.984L329.897 51.48L338.473 51.096L340.393 65.816L341.289 65.944ZM396.201 93.976C398.59 96.4507 401.748 98.5413 405.673 100.248C409.684 101.869 413.396 102.68 416.809 102.68C420.222 102.68 422.825 101.827 424.617 100.12C426.494 98.4133 427.433 96.536 427.433 94.488C427.433 92.3547 426.238 90.776 423.849 89.752C421.46 88.6427 418.558 87.7893 415.145 87.192C411.817 86.5093 408.446 85.656 405.033 84.632C401.705 83.608 398.846 81.8587 396.457 79.384C394.068 76.9093 392.873 73.6667 392.873 69.656C392.873 63.512 394.964 58.6053 399.145 54.936C403.412 51.2667 408.489 49.432 414.377 49.432C423.337 49.432 430.932 51.9493 437.161 56.984L432.425 65.56C430.377 63.768 427.476 62.1467 423.721 60.696C419.966 59.2453 416.425 58.52 413.097 58.52C409.769 58.52 407.081 59.416 405.033 61.208C402.985 62.9147 401.961 65.3893 401.961 68.632C401.961 70.5947 403.156 72.1733 405.545 73.368C408.02 74.4773 411.006 75.416 414.505 76.184C418.004 76.8667 421.502 77.72 425.001 78.744C428.585 79.768 431.572 81.4747 433.961 83.864C436.436 86.2533 437.673 89.3253 437.673 93.08C437.673 98.456 435.625 102.851 431.529 106.264C427.518 109.592 422.74 111.256 417.193 111.256C411.732 111.256 406.612 110.403 401.833 108.696C397.14 106.904 393.3 104.6 390.313 101.784C391.337 100.589 393.3 97.9867 396.201 93.976Z" fill="#404040"/>
</svg>
